# xmcd
#
# Track frame offsets:
#	150
#	11085
#	23821
#	36032
#	47969
#	59775
#	71749
#	84419
#	96916
#	109246
#	120437
#	131604
#	143881
#	155820
#	167957
#	180775
#	191683
#	203223
#	215086
#	227278
#	240356
#	253761
#	267984
#	283536
#
# Disc length: 3958 seconds
#
# Revision: 1
# Processed by: cddbd v1.5.1PL0 Copyright (c) Steve Scherf et al.
# Submitted via: audiograbber 1.83.01
#
DISCID=5f0f7418
DTITLE=Various Artist - Memphis Shakedown - More Jug Band Classics - CD 4
DYEAR=2005
DGENRE=Blues
TTITLE0=Charlie Burse and his Memphis Mudcats - Beale Street Holiday
TTITLE1=Charlie Burse and his Memphis Mudcats - Baby, You Win
TTITLE2=Charlie Burse and his Memphis Mudcats - Oil It Up and Go
TTITLE3=Charlie Burse and his Memphis Mudcats - What's the Matter with the Well
TTITLE4=Charlie Burse and his Memphis Mudcats - I'm in Buddy's Wagon
TTITLE5=Charlie Burse and his Memphis Mudcats - Good Potatoes on the Hill
TTITLE6=Charlie Burse and his Memphis Mudcats - Weed Smoking Mama
TTITLE7=Charlie Burse and his Memphis Mudcats - Dawn of Day Blues
TTITLE8=Charlie Burse and his Memphis Mudcats - Goldie May
TTITLE9=Charlie Burse and his Memphis Mudcats - Scared to Death
TTITLE10=Charlie Burse and his Memphis Mudcats - You Better Watch Out
TTITLE11=Charlie Burse and his Memphis Mudcats - Too Much Beef
TTITLE12=Charlie Burse and his Memphis Mudcats - Magic Spell Blues
TTITLE13=Charlie Burse and his Memphis Mudcats - It Makes No Difference, Now
TTITLE14=Charlie Burse and his Memphis Mudcats - Radio Blues
TTITLE15=Charlie Burse and his Memphis Mudcats - Hell's Highway
TTITLE16=Charlie Burse and his Memphis Mudcats - It's Against the Rule
TTITLE17=Charlie Burse and his Memphis Mudcats - Ain't Gonne Be No Doggone Afterw
TTITLE17=hile
TTITLE18=Charlie Burse and his Memphis Mudcats - Memphis Highway Stomp
TTITLE19=Charlie Burse and his Memphis Mudcats - Brand New Day Blues
TTITLE20=Minnie Wallace and her Nighthawks - The Cockeyed World
TTITLE21=Minnie Wallace and her Nighthawks - Field Mouse Stomp
TTITLE22=Minnie Wallace and her Nighthawks - Let's All Do That Thing
TTITLE23=Minnie Wallace and her Nighthawks - Pick 'em Up and Put 'em Down
EXTD=
EXTT0=
EXTT1=
EXTT2=
EXTT3=
EXTT4=
EXTT5=
EXTT6=
EXTT7=
EXTT8=
EXTT9=
EXTT10=
EXTT11=
EXTT12=
EXTT13=
EXTT14=
EXTT15=
EXTT16=
EXTT17=
EXTT18=
EXTT19=
EXTT20=
EXTT21=
EXTT22=
EXTT23=
PLAYORDER=
